# xmcd
#
# Track frame offsets: 
#        150
#        13852
#        26675
#        36467
#        48152
#        60232
#        70637
#        82470
#        92655
#        103850
#        118622
#        128205
#        136240
#        146792
#        156880
#        170537
#        182387
#        194075
#        205550
#        216005
#        226812
#        237180
#        248607
#        260637
#        272985
#        284447
#        297652
#        310250
#
# Disc length: 4277 seconds
#
# Revision: 0
# Processed by: cddbd v1.5.2PL0 Copyright (c) Steve Scherf et al.
# Submitted via: ExactAudioCopy v1.0b1
#
DISCID=a610b31c
DTITLE=James and Bobby Purify - Shake a Tail Feather: The Best of James 
DTITLE=& Bobby Purify
DYEAR=2002
DGENRE=R&B
TTITLE0=I'm Your Puppet (mono)
TTITLE1=You Left The Water Running (mono)
TTITLE2=Shake A Tail Feather (mono)
TTITLE3=I Was Born To Lose Out (mono)
TTITLE4=So Many Reasons (mono)
TTITLE5=Wish You Didn't Have To Go (mono)
TTITLE6=You Can't Keep A Good Man Down (mono)
TTITLE7=I Take What I Want (stereo)
TTITLE8=Let Love Come Between Us (stereo)
TTITLE9=I Don't Want To Have To Wait (stereo)
TTITLE10=You Don't Love Me (stereo)
TTITLE11=Goodness Gracious (mono)
TTITLE12=Hello There (mono)
TTITLE13=Keep Pushing Me (mono)
TTITLE14=Just Like Old Times (mono)
TTITLE15=I Can Remember (mono)
TTITLE16=We're Finally Gonna Make It (mono)
TTITLE17=Untie Me (mono)
TTITLE18=Everybody Needs Somebody (mono)
TTITLE19=Last Piece Of Love (mono)
TTITLE20=Help Yourself (To All My Lovin') (mono)
TTITLE21=I Don't Know What It Is You Got (mono)
TTITLE22=Section C (mono)
TTITLE23=My Adorable One (mono)
TTITLE24=Do Unto Me (stereo)
TTITLE25=The Weeper (stereo)
TTITLE26=She Ain't Gonna Do Right (stereo)
TTITLE27=Somebody Cares (stereo)
EXTD=
EXTT0=
EXTT1=
EXTT2=
EXTT3=
EXTT4=
EXTT5=
EXTT6=
EXTT7=
EXTT8=
EXTT9=
EXTT10=
EXTT11=
EXTT12=
EXTT13=
EXTT14=
EXTT15=
EXTT16=
EXTT17=
EXTT18=
EXTT19=
EXTT20=
EXTT21=
EXTT22=
EXTT23=
EXTT24=
EXTT25=
EXTT26=
EXTT27=
PLAYORDER=
